<svg xmlns="http://www.w3.org/2000/svg" width="32" height="32" fill="none" viewBox="0 0 32 32"><g><path fill="#fff" d="M7 5h18v23H7z"/><path fill="#014745" d="M11.735 11.757c0-.442 0-1.363 2.014-1.363h4.496c2.012 0 2.012.934 2.012 1.494l.003 9.316-3.636-2.056a1.23 1.23 0 0 0-1.206-.002l-3.683 2.064z"/><path fill="#014745" d="M22.919 31.59H9.078C3.892 31.59.41 27.945.41 22.522V9.479C.41 4.055 3.892.41 9.078.41H22.92c5.186 0 8.67 3.645 8.67 9.069v13.043c0 5.423-3.486 9.068-8.671 9.068M9.275 22.166a1.904 1.904 0 0 0 2.832 1.659l3.91-2.193 3.873 2.19a1.907 1.907 0 0 0 2.593-.734 1.9 1.9 0 0 0 .24-.926l-.004-10.274c0-2.477-1.672-3.955-4.473-3.955H13.75c-2.76 0-4.475 1.465-4.475 3.824z"/></g></svg>